<?xml version="1.0" encoding="UTF-8"?><svg id="Layer_2" xmlns="http://www.w3.org/2000/svg" xmlns:xlink="http://www.w3.org/1999/xlink" viewBox="0 0 201.67 221.54"><defs><style>.cls-1{fill:url(#linear-gradient-2);}.cls-2{fill:#fff;}.cls-3{fill:#fdbb3e;opacity:.58;}.cls-4{fill:#ffd117;}.cls-5{fill:url(#linear-gradient-6);}.cls-6{fill:url(#linear-gradient-5);}.cls-7{fill:url(#linear-gradient-7);}.cls-8{fill:url(#linear-gradient-3);}.cls-9{fill:url(#linear-gradient);}.cls-10{fill:url(#linear-gradient-4);}.cls-11{fill:url(#linear-gradient-8);}</style><linearGradient id="linear-gradient" x1="171.57" y1="56.01" x2="171.57" y2="104.99" gradientTransform="translate(-50.15 114.84) rotate(-45)" gradientUnits="userSpaceOnUse"><stop offset="0" stop-color="#ffdb00"/><stop offset=".62" stop-color="#fbb040"/><stop offset="1" stop-color="#f6861f"/></linearGradient><linearGradient id="linear-gradient-2" x1="183.4" y1="118.09" x2="183.4" y2="166.49" gradientTransform="translate(101.75 281.64) rotate(-135)" xlink:href="#linear-gradient"/><linearGradient id="linear-gradient-3" x1="103.77" y1="109.08" x2="103.77" y2="157.62" gradientTransform="translate(241.6 127.12) rotate(135)" xlink:href="#linear-gradient"/><linearGradient id="linear-gradient-4" x1="83.16" y1="21.4" x2="83.16" y2="69.85" gradientTransform="translate(102.42 13.92) rotate(45)" xlink:href="#linear-gradient"/><linearGradient id="linear-gradient-5" x1="184.67" y1="32.73" x2="201.55" y2="127.05" gradientTransform="translate(-50.15 114.84) rotate(-45)" gradientUnits="userSpaceOnUse"><stop offset="0" stop-color="#ffdb00"/><stop offset=".49" stop-color="#fbb040"/><stop offset=".97" stop-color="#e75b36"/></linearGradient><linearGradient id="linear-gradient-6" x1="85.51" y1="105.58" x2="102.39" y2="199.89" gradientTransform="translate(185.77 -54.23) rotate(45)" xlink:href="#linear-gradient-5"/><linearGradient id="linear-gradient-7" x1="92.51" y1="263.97" x2="109.4" y2="358.29" gradientTransform="translate(350.16 270.14) rotate(135)" xlink:href="#linear-gradient-5"/><linearGradient id="linear-gradient-8" x1="129.9" y1="311.95" x2="146.78" y2="406.27" gradientTransform="translate(-98.64 387.84) rotate(-135)" xlink:href="#linear-gradient-5"/></defs><g id="Layer_5"><g><path class="cls-3" d="M23.77,78.15l77.06,77.06,77.06-77.06L100.84,1.09,23.77,78.15Zm109.93,0l-32.87,32.87-32.87-32.87,32.87-32.87,32.87,32.87Z"/><polygon class="cls-4" points="177.9 78.15 133.7 78.15 100.84 45.28 122.93 23.18 177.9 78.15"/><path class="cls-9" d="M150.41,69.45l-3.31,3.31c-5.19,5.19-13.6,5.19-18.79,0l-27.48-27.48V1.09s49.58,49.58,49.58,49.58c5.19,5.19,5.19,13.6,0,18.79Z"/><polygon class="cls-4" points="100.84 1.09 100.84 45.28 67.97 78.15 45.87 56.05 100.84 1.09"/><path class="cls-1" d="M91.44,29.27l3.31,3.31c5.19,5.19,5.19,13.6,0,18.79l-26.78,26.78H23.78S72.66,29.27,72.66,29.27c5.19-5.19,13.6-5.19,18.79,0Z"/><polygon class="cls-4" points="23.77 78.15 67.97 78.15 100.84 111.02 78.74 133.11 23.77 78.15"/><path class="cls-8" d="M51.8,87.38l3.31-3.31c5.19-5.19,13.6-5.19,18.79,0l26.94,26.94v44.19s-49.04-49.04-49.04-49.04c-5.19-5.19-5.19-13.6,0-18.79Z"/><polygon class="cls-4" points="100.84 155.21 100.84 111.02 133.7 78.15 155.8 100.25 100.84 155.21"/><path class="cls-10" d="M110.18,127.08l-3.31-3.31c-5.19-5.19-5.19-13.6,0-18.79l26.84-26.84h44.19s-48.93,48.93-48.93,48.93c-5.19,5.19-13.6,5.19-18.79,0Z"/><polygon class="cls-6" points="100.84 1.09 178.98 40.91 177.9 78.15 100.84 1.09"/><polygon class="cls-5" points="177.9 78.15 138.08 156.3 100.84 155.21 177.9 78.15"/><polygon class="cls-7" points="100.84 155.21 22.69 115.39 23.78 78.15 100.84 155.21"/><polygon class="cls-11" points="23.78 78.15 63.59 0 100.84 1.09 23.78 78.15"/></g><g><path class="cls-2" d="M57.06,191.35h7.02v4.03h-12.29v-21.77h5.27v17.74Z"/><path class="cls-2" d="M77.79,173.61v12.56c0,1.44,.32,2.54,.97,3.29,.65,.76,1.59,1.14,2.82,1.14s2.17-.38,2.82-1.14c.65-.76,.97-1.86,.97-3.29v-12.56h5.27v12.56c0,2.05-.4,3.78-1.2,5.19-.8,1.41-1.89,2.46-3.28,3.17-1.39,.71-2.95,1.06-4.7,1.06s-3.29-.35-4.62-1.05c-1.33-.7-2.38-1.76-3.14-3.17-.76-1.42-1.14-3.15-1.14-5.2v-12.56h5.24Z"/><path class="cls-2" d="M119.64,195.39h-5.27l-8.81-13.37v13.37h-5.27v-21.77h5.27l8.81,13.49v-13.49h5.27v21.77Z"/><path class="cls-2" d="M142.92,191.41h-8.16l-1.35,3.97h-5.54l7.98-21.62h6.07l7.98,21.62h-5.6l-1.35-3.97Zm-1.35-4l-2.71-8.01-2.74,8.01h5.45Z"/></g><g><path class="cls-2" d="M10.28,221.41h-2.05l-6.17-9.38v9.38H0v-12.69H2.05l6.17,9.41v-9.41h2.05v12.69Z"/><path class="cls-2" d="M27.54,218.66h-5.36l-.97,2.75h-2.2l4.68-12.51h2.36l4.66,12.51h-2.2l-.97-2.75Zm-.58-1.58l-2.11-5.94-2.11,5.94h4.21Z"/><path class="cls-2" d="M52.61,208.9v12.51h-2.07v-9.38l-3.62,9.38h-1.8l-3.64-9.38v9.38h-2.05v-12.51h2.48l4.14,9.99,4.07-9.99h2.48Z"/><path class="cls-2" d="M64.33,210.36v3.85h4.68v1.58h-4.68v3.94h5.22v1.67h-7.27v-12.71h7.27v1.66h-5.22Z"/><path class="cls-2" d="M98.06,219.77c-.3,.53-.76,.96-1.37,1.29-.61,.32-1.36,.49-2.25,.49s-1.64-.15-2.32-.46-1.23-.73-1.64-1.29c-.41-.55-.64-1.19-.7-1.91h2.2c.06,.55,.3,1.03,.71,1.42s.97,.59,1.67,.59c.62,0,1.11-.17,1.45-.5,.34-.34,.51-.77,.51-1.3,0-.46-.13-.83-.38-1.12-.25-.29-.56-.52-.94-.69s-.88-.36-1.53-.58c-.79-.25-1.44-.5-1.94-.76-.5-.25-.92-.62-1.27-1.1-.35-.48-.52-1.11-.52-1.89,0-.68,.17-1.28,.5-1.8,.34-.52,.82-.92,1.44-1.2,.62-.28,1.34-.42,2.16-.42,1.3,0,2.32,.31,3.09,.94,.76,.62,1.2,1.44,1.31,2.45h-2.21c-.08-.48-.31-.89-.67-1.23-.37-.34-.87-.51-1.5-.51-.58,0-1.04,.15-1.39,.44-.35,.29-.52,.72-.52,1.27,0,.43,.12,.79,.36,1.07,.24,.28,.54,.5,.91,.67,.37,.16,.87,.35,1.5,.57,.8,.25,1.46,.51,1.97,.76,.51,.26,.94,.63,1.3,1.12,.35,.49,.53,1.14,.53,1.94,0,.62-.15,1.2-.45,1.74Z"/><path class="cls-2" d="M109.82,210.36v3.85h4.68v1.58h-4.68v3.94h5.22v1.67h-7.27v-12.71h7.27v1.66h-5.22Z"/><path class="cls-2" d="M130.91,221.41l-3.17-5.08h-1.46v5.08h-2.05v-12.71h4.48c1.45,0,2.55,.35,3.3,1.06s1.12,1.64,1.12,2.81c0,1-.28,1.81-.84,2.45-.56,.64-1.37,1.04-2.42,1.22l3.33,5.17h-2.3Zm-4.63-6.53h2.27c1.66,0,2.48-.73,2.48-2.2,0-.7-.2-1.24-.6-1.63s-1.03-.58-1.88-.58h-2.27v4.41Z"/><path class="cls-2" d="M143.48,208.7l3.65,10.51,3.67-10.51h2.23l-4.59,12.71h-2.63l-4.57-12.71h2.23Z"/><path class="cls-2" d="M163.82,208.7v12.71h-2.05v-12.71h2.05Z"/><path class="cls-2" d="M183.06,209.77c1.03,.79,1.73,1.87,2.09,3.22h-2.18c-.3-.77-.78-1.38-1.43-1.83-.65-.45-1.46-.67-2.4-.67-.76,0-1.43,.19-2.02,.56-.59,.37-1.06,.9-1.4,1.59-.34,.69-.51,1.5-.51,2.42s.17,1.71,.51,2.4c.34,.69,.81,1.22,1.4,1.59,.59,.37,1.27,.56,2.02,.56,.95,0,1.75-.23,2.4-.68,.65-.45,1.13-1.05,1.43-1.81h2.18c-.36,1.36-1.06,2.43-2.09,3.21s-2.33,1.18-3.89,1.18c-1.2,0-2.26-.27-3.19-.82-.92-.55-1.64-1.31-2.14-2.29s-.76-2.1-.76-3.36,.25-2.38,.76-3.36,1.22-1.74,2.14-2.29c.92-.55,1.99-.83,3.19-.83,1.56,0,2.86,.4,3.89,1.19Z"/><path class="cls-2" d="M196.45,210.36v3.85h4.68v1.58h-4.68v3.94h5.22v1.67h-7.27v-12.71h7.27v1.66h-5.22Z"/></g></g></svg>